<svg xmlns="http://www.w3.org/2000/svg" width="32" height="32"><path style="line-height:normal;-inkscape-font-specification:Sans;text-indent:0;text-align:start;text-decoration-line:none;text-transform:none;block-progression:tb;marker:none" d="M11.016 5.018c-2.179 0-4.195.695-5.657 2.062-1.461 1.368-2.343 3.402-2.343 5.938 0 2.66 1.87 5.134 4.406 7.562 2.535 2.429 5.796 4.825 8.781 7.313.176.14.45.14.625 0 2.984-2.487 6.238-4.891 8.781-7.313 2.544-2.421 4.438-4.874 4.438-7.562 0-2.564-.912-4.577-2.375-5.938-1.463-1.36-3.45-2.062-5.625-2.062-2.239 0-4.13 1.412-5.531 2.843-1.396-1.423-3.267-2.843-5.5-2.843z" color="#000" font-family="Sans" font-weight="400" overflow="visible"/></svg>